<?xml version="1.0" encoding="utf-8"?>
<!-- Generator: Adobe Illustrator 23.1.0, SVG Export Plug-In . SVG Version: 6.00 Build 0)  -->
<svg version="1.1" id="Layer_1" xmlns="http://www.w3.org/2000/svg" xmlns:xlink="http://www.w3.org/1999/xlink" x="0px" y="0px"
	 viewBox="0 0 160 160" style="enable-background:new 0 0 160 160;" xml:space="preserve">
<style type="text/css">
	.st0{fill:#004175;}
	.st1{fill:#4D4F53;}
	.st2{fill:#5E2750;}
	.st3{fill:#FFFFFF;}
	.st4{font-family:'Wingdings-Regular';}
	.st5{font-size:12px;}
</style>
<path class="st0" d="M84.8,0L0,84.8V80C0,36.6,34.5,1.3,77.6,0l5,0H84.8z"/>
<path class="st0" d="M84.7,0.1L0.1,84.7C0,83.1,0,81.6,0,80C0,36.6,34.5,1.3,77.6,0c0.8,0,1.6,0,2.4,0c0.9,0,1.7,0,2.6,0
	C83.3,0.1,84,0.1,84.7,0.1z"/>
<path class="st0" d="M72.7,134.8c-1.1,0-1.9,0.7-2.4,1.9c-0.5,1.3-0.8,2.5-0.8,3.7c0,1.1,0.2,2,0.7,2.4c0.4,0.5,1,0.7,1.6,0.7
	c1.1,0,2-0.6,2.5-1.9c0.5-1.3,0.8-2.5,0.8-3.9C75.2,135.8,74.3,134.8,72.7,134.8z M72.7,134.8c-1.1,0-1.9,0.7-2.4,1.9
	c-0.5,1.3-0.8,2.5-0.8,3.7c0,1.1,0.2,2,0.7,2.4c0.4,0.5,1,0.7,1.6,0.7c1.1,0,2-0.6,2.5-1.9c0.5-1.3,0.8-2.5,0.8-3.9
	C75.2,135.8,74.3,134.8,72.7,134.8z M72.7,134.8c-1.1,0-1.9,0.7-2.4,1.9c-0.5,1.3-0.8,2.5-0.8,3.7c0,1.1,0.2,2,0.7,2.4
	c0.4,0.5,1,0.7,1.6,0.7c1.1,0,2-0.6,2.5-1.9c0.5-1.3,0.8-2.5,0.8-3.9C75.2,135.8,74.3,134.8,72.7,134.8z M72.7,134.8
	c-1.1,0-1.9,0.7-2.4,1.9c-0.5,1.3-0.8,2.5-0.8,3.7c0,1.1,0.2,2,0.7,2.4c0.4,0.5,1,0.7,1.6,0.7c1.1,0,2-0.6,2.5-1.9
	c0.5-1.3,0.8-2.5,0.8-3.9C75.2,135.8,74.3,134.8,72.7,134.8z M45,44.3L0.5,89.1c2,17.4,9.5,33.2,20.8,45.3c0.4,0.5,0.9,0.9,1.3,1.4
	c0.4,0.4,0.8,0.9,1.3,1.3c1.6,1.5,3.2,3,4.9,4.4c1,0.8,2,1.6,3,2.4c0.9,0.7,1.9,1.4,2.8,2c12.9,8.9,28.5,14,45.3,14
	c16.8,0,32.3-5.2,45.2-14c0.7-0.5,1.4-1,2.1-1.5c0.8-0.6,1.5-1.2,2.3-1.8c1.1-0.9,2.3-1.8,3.3-2.8c0.1,0,0.1-0.1,0.2-0.2
	c0.9-0.8,1.9-1.7,2.8-2.6c6.4-6.3,11.8-13.6,15.8-21.7L45,44.3z M37.1,95c0-2.9,0.2-5,0.3-5.9c0.1-0.6,0.2-0.9,0.5-0.9
	c0.3,0,0.4,0.2,0.4,0.6c0,0.4,0,1.1,0.2,1.9c0.8,4.1,4.5,5.7,8.2,5.7c5.2,0,7.7-3.6,7.7-6.7c0-3.6-1.6-5.8-6.2-9.5l-2.5-2
	c-6-4.8-7.3-8.2-7.3-11.9c0-5.8,4.6-9.7,11.6-9.7c2.2,0,3.7,0.2,5.1,0.5c1.2,0.3,1.7,0.3,2.1,0.3s0.6,0.1,0.6,0.4s-0.3,2.5-0.3,6.1
	c0,0.9-0.1,1.3-0.4,1.3c-0.3,0-0.4-0.3-0.4-0.7c-0.1-0.6-0.2-1.9-0.8-3c-0.3-0.6-1.8-3-7-3c-3.8,0-6.6,2.3-6.6,6
	c0,3,1.5,4.8,6.7,8.8l1.5,1.1c6.5,5,8.2,8.4,8.2,12.8c0,2.3-0.9,6.3-4.8,8.9c-2.5,1.6-5.5,2.2-8.5,2.2c-2.7,0-5.1-0.3-7.5-1.4
	C37.1,96.8,37.1,96.5,37.1,95z M52,145.1l-0.5-2.8h-4.3l-1.3,2.8h-2l5.6-11.7h2.6l2.1,11.7H52z M64.4,145.1h-1.7l-4-8.8l-1.5,8.8
	h-1.7l2-11.7h2.2l3.7,8l1.3-8h1.7L64.4,145.1z M75.9,143.3c-1,1.4-2.4,2.2-4.1,2.2c-1.2,0-2.3-0.5-3.2-1.5c-0.9-1-1.3-2.3-1.3-3.8
	c0-1.8,0.5-3.4,1.5-4.9c1-1.5,2.4-2.2,4-2.2c1.4,0,2.5,0.5,3.3,1.4s1.2,2.2,1.2,3.9C77.4,140.2,76.9,141.8,75.9,143.3z M87.2,145.1
	h-1.7l-4-8.8l-1.5,8.8h-1.7l1.9-11.7h2.2l3.6,8l1.3-8h1.7L87.2,145.1z M93.6,145.1h-2.2l1.7-9.9h-3l0.3-1.8h8.1l-0.3,1.8h-3
	L93.6,145.1z M72.7,134.8c-1.1,0-1.9,0.7-2.4,1.9c-0.5,1.3-0.8,2.5-0.8,3.7c0,1.1,0.2,2,0.7,2.4c0.4,0.5,1,0.7,1.6,0.7
	c1.1,0,2-0.6,2.5-1.9c0.5-1.3,0.8-2.5,0.8-3.9C75.2,135.8,74.3,134.8,72.7,134.8z M47.9,140.6h3.3l-0.9-5.2L47.9,140.6z M72.7,134.8
	c-1.1,0-1.9,0.7-2.4,1.9c-0.5,1.3-0.8,2.5-0.8,3.7c0,1.1,0.2,2,0.7,2.4c0.4,0.5,1,0.7,1.6,0.7c1.1,0,2-0.6,2.5-1.9
	c0.5-1.3,0.8-2.5,0.8-3.9C75.2,135.8,74.3,134.8,72.7,134.8z M72.7,134.8c-1.1,0-1.9,0.7-2.4,1.9c-0.5,1.3-0.8,2.5-0.8,3.7
	c0,1.1,0.2,2,0.7,2.4c0.4,0.5,1,0.7,1.6,0.7c1.1,0,2-0.6,2.5-1.9c0.5-1.3,0.8-2.5,0.8-3.9C75.2,135.8,74.3,134.8,72.7,134.8z"/>
<path class="st0" d="M160,80c0,11.8-2.5,23-7.1,33l-106-70.6l42-41.9C128.9,4.9,160,38.8,160,80z"/>
<path class="st0" d="M160,80c0,11.8-2.5,23-7.1,33l-106-70.6l42-41.9C128.9,4.9,160,38.8,160,80z"/>
<path class="st1" d="M84.8,0L0,84.8V80C0,36.6,34.5,1.3,77.6,0l5,0H84.8z"/>
<path class="st2" d="M160,80c0,11.8-2.5,23-7.1,33l-106-70.6l42-41.9C128.9,4.9,160,38.8,160,80z"/>
<g>
	<path class="st1" d="M79.7,91.2c-4,0.2-12.2,1.4-21.1,7.9l12.8-22.2L79.7,91.2z"/>
	<path class="st3" d="M88.6,106.9c-13.9-1-29.3,5.9-37.6,10.6c0,0-0.1,0-0.1,0.1c-1.6,0.9-3,1.8-4.1,2.4l5.8-10l0.6-1c0,0,0,0,0,0
		l1.4-2.4l0,0c0.5-0.8,1-1.6,1.6-2.3c0.8-1,1.8-1.9,2.8-2.8c0.3-0.3,0.6-0.5,1-0.8c2.2-1.6,4.3-2.8,6.4-3.7c0,0,0,0,0,0
		c6.1-2.9,11.3-3.4,14.5-3.5l0.8,1.3l0.1,0.1l3.5,6L88.6,106.9z"/>
	<path class="st1" d="M98.7,124H44.2l0.1-0.1c2.3-1.4,25.1-15.7,45.9-14.6l0,0L98.7,124z"/>
</g>
<text transform="matrix(1 0 0 1 65.5545 106.7019)" class="st2 st4 st5">S</text>
<g>
	<path class="st2" d="M107.1,134.5c-0.8-0.9-1.9-1.4-3.3-1.4c-1.7,0-3,0.7-4,2.2c-1,1.5-1.5,3.1-1.5,4.9c0,1.6,0.4,2.9,1.3,3.8
		c0.9,1,1.9,1.5,3.2,1.5c1.7,0,3.1-0.7,4.1-2.2s1.5-3.1,1.5-4.9C108.3,136.7,107.9,135.4,107.1,134.5z M105.2,141.8
		c-0.5,1.3-1.4,1.9-2.5,1.9c-0.6,0-1.2-0.2-1.6-0.7c-0.5-0.5-0.7-1.3-0.7-2.4c0-1.2,0.3-2.4,0.8-3.7c0.5-1.3,1.3-1.9,2.4-1.9
		c1.6,0,2.4,1,2.4,3.1C106,139.2,105.8,140.5,105.2,141.8z"/>
</g>
<polygon class="st2" points="58.7,136.3 57.3,145.1 55.6,145.1 57.5,133.4 59.7,133.4 63.3,141.4 64.7,133.4 66.4,133.4 64.4,145.1 
	62.7,145.1 "/>
</svg>
