<?xml version="1.0" encoding="utf-8"?>
<!-- Generator: Adobe Illustrator 23.1.0, SVG Export Plug-In . SVG Version: 6.00 Build 0)  -->
<svg version="1.1" id="Layer_1" xmlns="http://www.w3.org/2000/svg" xmlns:xlink="http://www.w3.org/1999/xlink" x="0px" y="0px"
	 viewBox="0 0 160 160" style="enable-background:new 0 0 160 160;" xml:space="preserve">
<style type="text/css">
	.st0{fill:#004175;}
	.st1{fill:#4D4F53;}
	.st2{fill:#5E2750;}
	.st3{fill:#FFFFFF;}
</style>
<polygon class="st0" points="0,84.8 0,0 42.8,0 84.8,0 "/>
<polygon class="st0" points="160,0 160,117.7 46.9,42.4 89.3,0 "/>
<path class="st0" d="M22,135.7c-0.9,0-2.1,0.4-2.1,3.8c0,2.6,0.6,5.4,2.6,5.4c1,0,2.1-0.5,2.1-4.1C24.6,138.7,24.1,135.7,22,135.7z
	 M22,135.7c-0.9,0-2.1,0.4-2.1,3.8c0,2.6,0.6,5.4,2.6,5.4c1,0,2.1-0.5,2.1-4.1C24.6,138.7,24.1,135.7,22,135.7z M22,135.7
	c-0.9,0-2.1,0.4-2.1,3.8c0,2.6,0.6,5.4,2.6,5.4c1,0,2.1-0.5,2.1-4.1C24.6,138.7,24.1,135.7,22,135.7z M62.6,137.3
	c-0.7-1.1-1.7-1.4-2.4-1.4c-0.2,0-0.4,0-0.5,0c-0.1,0-0.2,0.2-0.2,0.3c0,0.5,0,1.4,0,2.4v1.7c0,1.6,0,2.6,0,2.9c0,0.6,0,1,0.2,1.3
	c0.2,0.3,0.7,0.4,1.2,0.4c0.5,0,1.2-0.2,1.7-1c0.5-0.9,0.7-2,0.7-3.2C63.4,139.6,63.1,138.2,62.6,137.3z M62.6,137.3
	c-0.7-1.1-1.7-1.4-2.4-1.4c-0.2,0-0.4,0-0.5,0c-0.1,0-0.2,0.2-0.2,0.3c0,0.5,0,1.4,0,2.4v1.7c0,1.6,0,2.6,0,2.9c0,0.6,0,1,0.2,1.3
	c0.2,0.3,0.7,0.4,1.2,0.4c0.5,0,1.2-0.2,1.7-1c0.5-0.9,0.7-2,0.7-3.2C63.4,139.6,63.1,138.2,62.6,137.3z M22,135.7
	c-0.9,0-2.1,0.4-2.1,3.8c0,2.6,0.6,5.4,2.6,5.4c1,0,2.1-0.5,2.1-4.1C24.6,138.7,24.1,135.7,22,135.7z M22,135.7
	c-0.9,0-2.1,0.4-2.1,3.8c0,2.6,0.6,5.4,2.6,5.4c1,0,2.1-0.5,2.1-4.1C24.6,138.7,24.1,135.7,22,135.7z M62.6,137.3
	c-0.7-1.1-1.7-1.4-2.4-1.4c-0.2,0-0.4,0-0.5,0c-0.1,0-0.2,0.2-0.2,0.3c0,0.5,0,1.4,0,2.4v1.7c0,1.6,0,2.6,0,2.9c0,0.6,0,1,0.2,1.3
	c0.2,0.3,0.7,0.4,1.2,0.4c0.5,0,1.2-0.2,1.7-1c0.5-0.9,0.7-2,0.7-3.2C63.4,139.6,63.1,138.2,62.6,137.3z M62.6,137.3
	c-0.7-1.1-1.7-1.4-2.4-1.4c-0.2,0-0.4,0-0.5,0c-0.1,0-0.2,0.2-0.2,0.3c0,0.5,0,1.4,0,2.4v1.7c0,1.6,0,2.6,0,2.9c0,0.6,0,1,0.2,1.3
	c0.2,0.3,0.7,0.4,1.2,0.4c0.5,0,1.2-0.2,1.7-1c0.5-0.9,0.7-2,0.7-3.2C63.4,139.6,63.1,138.2,62.6,137.3z M22,135.7
	c-0.9,0-2.1,0.4-2.1,3.8c0,2.6,0.6,5.4,2.6,5.4c1,0,2.1-0.5,2.1-4.1C24.6,138.7,24.1,135.7,22,135.7z M22,135.7
	c-0.9,0-2.1,0.4-2.1,3.8c0,2.6,0.6,5.4,2.6,5.4c1,0,2.1-0.5,2.1-4.1C24.6,138.7,24.1,135.7,22,135.7z M62.6,137.3
	c-0.7-1.1-1.7-1.4-2.4-1.4c-0.2,0-0.4,0-0.5,0c-0.1,0-0.2,0.2-0.2,0.3c0,0.5,0,1.4,0,2.4v1.7c0,1.6,0,2.6,0,2.9c0,0.6,0,1,0.2,1.3
	c0.2,0.3,0.7,0.4,1.2,0.4c0.5,0,1.2-0.2,1.7-1c0.5-0.9,0.7-2,0.7-3.2C63.4,139.6,63.1,138.2,62.6,137.3z M62.6,137.3
	c-0.7-1.1-1.7-1.4-2.4-1.4c-0.2,0-0.4,0-0.5,0c-0.1,0-0.2,0.2-0.2,0.3c0,0.5,0,1.4,0,2.4v1.7c0,1.6,0,2.6,0,2.9c0,0.6,0,1,0.2,1.3
	c0.2,0.3,0.7,0.4,1.2,0.4c0.5,0,1.2-0.2,1.7-1c0.5-0.9,0.7-2,0.7-3.2C63.4,139.6,63.1,138.2,62.6,137.3z M22,135.7
	c-0.9,0-2.1,0.4-2.1,3.8c0,2.6,0.6,5.4,2.6,5.4c1,0,2.1-0.5,2.1-4.1C24.6,138.7,24.1,135.7,22,135.7z M22,135.7
	c-0.9,0-2.1,0.4-2.1,3.8c0,2.6,0.6,5.4,2.6,5.4c1,0,2.1-0.5,2.1-4.1C24.6,138.7,24.1,135.7,22,135.7z M62.6,137.3
	c-0.7-1.1-1.7-1.4-2.4-1.4c-0.2,0-0.4,0-0.5,0c-0.1,0-0.2,0.2-0.2,0.3c0,0.5,0,1.4,0,2.4v1.7c0,1.6,0,2.6,0,2.9c0,0.6,0,1,0.2,1.3
	c0.2,0.3,0.7,0.4,1.2,0.4c0.5,0,1.2-0.2,1.7-1c0.5-0.9,0.7-2,0.7-3.2C63.4,139.6,63.1,138.2,62.6,137.3z M134.3,142.1l-1.1-2.4
	c0,0-0.1,0-0.1,0l-1.1,2.4c0,0,0,0.1,0.1,0.1L134.3,142.1C134.3,142.2,134.3,142.2,134.3,142.1z M134.3,142.1l-1.1-2.4
	c0,0-0.1,0-0.1,0l-1.1,2.4c0,0,0,0.1,0.1,0.1L134.3,142.1C134.3,142.2,134.3,142.2,134.3,142.1z M62.6,137.3
	c-0.7-1.1-1.7-1.4-2.4-1.4c-0.2,0-0.4,0-0.5,0c-0.1,0-0.2,0.2-0.2,0.3c0,0.5,0,1.4,0,2.4v1.7c0,1.6,0,2.6,0,2.9c0,0.6,0,1,0.2,1.3
	c0.2,0.3,0.7,0.4,1.2,0.4c0.5,0,1.2-0.2,1.7-1c0.5-0.9,0.7-2,0.7-3.2C63.4,139.6,63.1,138.2,62.6,137.3z M22,135.7
	c-0.9,0-2.1,0.4-2.1,3.8c0,2.6,0.6,5.4,2.6,5.4c1,0,2.1-0.5,2.1-4.1C24.6,138.7,24.1,135.7,22,135.7z M45,44.3L0,89.6V160h160v-38.9
	L45,44.3z M12,145.6c-1,0.5-2.3,0.6-3.2,0.6c-1.1,0-2.4-0.2-3-0.5c-0.3-0.2-0.4-0.3-0.4-0.6c0-1,0.1-2.3,0.1-2.8
	c0-0.3,0.1-0.3,0.2-0.3c0.1,0,0.2,0.2,0.2,0.3c0,0.2,0,0.4,0.1,0.6c0.3,1.4,2.1,2,3.1,2c1.3,0,1.6-0.5,1.6-1.1c0-0.5-0.3-0.8-1-1.2
	l-1.4-0.7c-2.3-1.2-2.8-2.4-2.8-3.8c0-1.8,1.4-3.6,4.7-3.6c0.9,0,1.7,0.1,2.5,0.2c0.3,0.1,0.5,0.1,0.7,0.1c0.1,0,0.1,0,0.1,0.2
	c0,0.2-0.1,1.2-0.1,2.8c0,0.3-0.1,0.4-0.2,0.4s-0.2-0.1-0.2-0.3c0-0.3-0.1-0.6-0.3-1c-0.3-0.5-1.2-1.1-2.4-1.1
	c-1.3,0-1.6,0.7-1.6,1.1c0,0.4,0.1,0.8,1.1,1.3l1.1,0.5c2.1,1,3.1,2.1,3.1,3.8C14,143.8,13.3,144.9,12,145.6z M22.2,146.2
	c-4.5,0-6.7-2.9-6.7-6c0-2.8,2-5.8,6.8-5.8c4.4,0,6.7,2.8,6.7,5.7C29,143.8,26.4,146.2,22.2,146.2z M44.3,146c-1.4,0-3.2,0-3.2,0
	c-0.3,0-1.6,0-2.6,0c-0.3,0-0.4-0.1-0.4-0.2c0-0.1,0.1-0.2,0.3-0.2c0.5,0,0.8-0.2,0.8-0.8c0-0.6,0.1-1.4,0.1-2.8v-1
	c0-0.1,0-0.1-0.1-0.1h-3.3c0,0-0.1,0-0.1,0.1v1.7c0,1,0,1.8,0.1,2.1c0.1,0.6,0.2,0.8,1,0.9c0.3,0,0.3,0.1,0.3,0.2
	c0,0.1,0,0.2-0.3,0.2c-1,0-3.1,0-3.2,0c0,0-2.2,0-2.7,0c-0.3,0-0.4-0.1-0.4-0.2c0-0.1,0.1-0.2,0.4-0.2c0.8,0,0.8-0.3,0.9-0.9
	c0.1-0.6,0.1-1.6,0.1-3.1V139c0-2.2,0-2.9-0.1-3.3c0-0.6-0.2-0.8-1-0.8c-0.3,0-0.4-0.1-0.4-0.2c0-0.1,0.1-0.2,0.3-0.2
	c1.2,0,2.3,0,2.8,0c0.5,0,2.1,0,3,0c0.4,0,0.4,0.1,0.4,0.2c0,0.1-0.1,0.2-0.4,0.2c-0.7,0-0.8,0.2-0.8,1c0,0.5,0,1.2,0,2.7v0.3
	c0,0.1,0,0.1,0.1,0.1h3.3c0,0,0.1,0,0.1-0.1v-0.3c0-2.1,0-2.5-0.1-3c0-0.5-0.1-0.7-0.7-0.8c-0.3,0-0.4-0.1-0.4-0.2
	c0-0.1,0-0.2,0.4-0.2c1.1,0,2.7,0,2.7,0c0.1,0,2,0,2.9,0c0.3,0,0.4,0.1,0.4,0.2c0,0.1-0.1,0.2-0.4,0.2c-0.8,0-0.9,0.4-0.9,0.9
	c0,0.5-0.1,0.8-0.1,3.1v2.7c0,0.7,0,2.5,0.1,3.1c0,0.6,0.2,0.9,1,0.9c0.2,0,0.3,0,0.3,0.2C44.6,145.9,44.5,146,44.3,146z M52.4,146
	c-1.3,0-3.2,0-3.3,0c-0.1,0-2.1,0-2.6,0c-0.3,0-0.5,0-0.5-0.2c0-0.2,0.2-0.2,0.4-0.2c0.7,0,0.8-0.3,0.8-1c0-0.6,0.1-1.9,0.1-3v-2.7
	c0-2.3,0-2.9-0.1-3.3c-0.1-0.5-0.3-0.7-0.9-0.7c-0.2,0-0.4-0.1-0.4-0.2c0-0.1,0.1-0.2,0.4-0.2c0.7,0,2.6,0,2.7,0c0,0,2.5,0,3.2,0
	c0.3,0,0.4,0.1,0.4,0.2c0,0.1-0.1,0.2-0.4,0.2c-0.8,0-0.9,0.3-0.9,1.1c0,0.5-0.1,1.3-0.1,2.9v2.7c0,0.7,0,2.5,0.1,3.1
	c0.1,0.6,0.2,0.9,1,0.9c0.3,0,0.4,0,0.4,0.2C52.8,145.9,52.7,146,52.4,146z M65.7,144.5c-1.1,1-2.6,1.6-5.2,1.6
	c-1,0-2.3-0.1-3.4-0.1c-0.7,0-1.5,0-2.4,0c-0.3,0-0.4,0-0.4-0.2c0-0.2,0.2-0.2,0.4-0.2c0.8,0,0.8-0.4,0.9-1.1c0.1-0.8,0.1-1.9,0.1-3
	V139c0-2.2,0-2.6-0.1-3.1c-0.1-0.7-0.4-0.9-1.1-0.9c-0.2,0-0.3-0.1-0.3-0.2s0.1-0.2,0.3-0.2c0.1,0,1.9,0,2.9,0c0.6,0,1.3,0,2.8,0
	c3.3,0,4.6,0.7,5.8,1.8c0.8,0.8,1.4,2,1.4,3.7C67.5,142.1,66.8,143.5,65.7,144.5z M81.6,134.9c-0.7,0.1-0.8,0.3-0.8,1.1
	c0,0.5,0,0.8,0,2.9v1.6c0,1.7-0.1,3.5-1.7,4.6c-0.9,0.6-2.2,1-3.4,1c-1.8,0-2.9-0.3-3.9-0.9c-0.9-0.6-1.6-1.6-1.6-3.8v-2.5
	c0-2.3,0-2.8-0.1-3.3c-0.1-0.6-0.4-0.7-0.9-0.7c-0.2,0-0.3-0.1-0.3-0.2c0-0.1,0-0.2,0.4-0.2c0.7,0,2.5,0,2.7,0c0.2,0,2.4,0,3.1,0
	c0.3,0,0.4,0,0.4,0.1c0,0.2-0.2,0.2-0.4,0.2c-0.6,0.1-0.8,0.3-0.9,1c0,0.5-0.1,0.7-0.1,3v2.8c0,1.1,0.1,1.9,0.5,2.4
	c0.4,0.6,1,0.7,1.6,0.7c0.3,0,0.8,0,1.2-0.4c0.6-0.5,0.8-1.1,0.8-3.8v-1.7c0-2.1,0-2.3,0-2.8c0-0.9-0.1-1.2-1-1.3
	c-0.3,0-0.4-0.1-0.4-0.2c0-0.1,0.1-0.1,0.4-0.1c1,0,1.8,0,2.3,0c0.4,0,1.7,0,2.2,0c0.3,0,0.4,0,0.4,0.2
	C81.9,134.8,81.8,134.9,81.6,134.9z M93.6,142.7c-0.1,0.8-0.3,2.2-0.5,2.9c-0.2,0.4-0.4,0.4-1,0.4c-2.3,0-3.5-0.1-5.9-0.1
	c-1.2,0-1.4,0-2.7,0c-0.3,0-0.4-0.1-0.4-0.2c0-0.1,0.1-0.2,0.4-0.2c1-0.1,1-0.2,1.1-2.3c0-0.6,0-1.5,0-1.7v-2.7c0-2.5,0-2.7-0.1-3.1
	c0-0.6-0.2-0.8-1-0.9c-0.3,0-0.4-0.1-0.4-0.2c0-0.1,0.2-0.2,0.5-0.2c1.2,0,1.8,0,2.6,0c0.3,0,2.7,0,3.4,0c0.3,0,0.4,0,0.4,0.2
	c0,0.1-0.1,0.2-0.3,0.2c-1,0-1.1,0.3-1.2,1.1c0,0.5-0.1,0.6-0.1,3.2v2.4c0,1.9,0.1,2.2,0.2,2.5c0.2,0.4,0.8,0.4,1.9,0.4
	c0.3,0,1.2,0,1.7-0.2c0.4-0.2,0.9-0.5,1.1-1.7c0-0.2,0.1-0.3,0.2-0.3C93.6,142.2,93.6,142.4,93.6,142.7z M105,146
	c-1.3,0-3.2,0-3.3,0c-0.1,0-2.1,0-2.6,0c-0.3,0-0.5,0-0.5-0.2c0-0.2,0.2-0.2,0.4-0.2c0.7,0,0.8-0.3,0.8-1c0-0.6,0.1-1.9,0.1-3v-2.7
	c0-2.3,0-2.9-0.1-3.3c-0.1-0.5-0.3-0.7-0.9-0.7c-0.2,0-0.4-0.1-0.4-0.2c0-0.1,0.1-0.2,0.4-0.2c0.7,0,2.6,0,2.7,0c0,0,2.5,0,3.2,0
	c0.3,0,0.4,0.1,0.4,0.2c0,0.1-0.1,0.2-0.4,0.2c-0.8,0-0.9,0.3-0.9,1.1c0,0.5-0.1,1.3-0.1,2.9v2.7c0,0.7,0,2.5,0.1,3.1
	c0.1,0.6,0.2,0.9,1,0.9c0.3,0,0.4,0,0.4,0.2C105.4,145.9,105.4,146,105,146z M113.6,145.6c-1,0.5-2.3,0.6-3.2,0.6
	c-1.1,0-2.4-0.2-3-0.5c-0.3-0.2-0.4-0.3-0.4-0.6c0-1,0.1-2.3,0.1-2.8c0-0.3,0.1-0.3,0.2-0.3c0.1,0,0.2,0.2,0.2,0.3
	c0,0.2,0,0.4,0.1,0.6c0.3,1.4,2.1,2,3.1,2c1.3,0,1.6-0.5,1.6-1.1c0-0.5-0.3-0.8-1-1.2l-1.4-0.7c-2.3-1.2-2.8-2.4-2.8-3.8
	c0-1.8,1.4-3.6,4.7-3.6c0.9,0,1.7,0.1,2.5,0.2c0.3,0.1,0.5,0.1,0.7,0.1c0.1,0,0.1,0,0.1,0.2c0,0.2-0.1,1.2-0.1,2.8
	c0,0.3-0.1,0.4-0.2,0.4c-0.1,0-0.2-0.1-0.2-0.3c0-0.3-0.1-0.6-0.3-1c-0.3-0.5-1.2-1.1-2.4-1.1c-1.3,0-1.6,0.7-1.6,1.1
	c0,0.4,0.1,0.8,1.1,1.3l1.1,0.5c2.1,1,3.1,2.1,3.1,3.8C115.7,143.8,114.9,144.9,113.6,145.6z M126.1,146c-2.3,0-3.5-0.1-5.9-0.1
	c-1.2,0-1.4,0-2.7,0c-0.3,0-0.4-0.1-0.4-0.2c0-0.1,0.1-0.2,0.4-0.2c1-0.1,1-0.2,1.1-2.3c0-0.6,0-1.5,0-1.7v-2.7c0-2.5,0-2.7-0.1-3.1
	c0-0.6-0.2-0.8-1-0.9c-0.3,0-0.4-0.1-0.4-0.2c0-0.1,0.2-0.2,0.5-0.2c1.2,0,1.8,0,2.6,0c0.3,0,2.7,0,3.4,0c0.3,0,0.4,0,0.4,0.2
	c0,0.1-0.1,0.2-0.3,0.2c-1,0-1.1,0.3-1.2,1.1c0,0.5-0.1,0.6-0.1,3.2v2.4c0,1.9,0.1,2.2,0.2,2.5c0.2,0.4,0.8,0.4,1.9,0.4
	c0.3,0,1.2,0,1.7-0.2c0.4-0.2,0.9-0.5,1.1-1.7c0-0.2,0.1-0.3,0.2-0.3c0.1,0,0.2,0.2,0.1,0.4c-0.1,0.8-0.3,2.2-0.5,2.9
	C126.9,146,126.6,146,126.1,146z M156.6,146c-2,0-3.6,0-4.9-0.1c-0.4,0-0.5-0.1-0.5-0.2c0-0.1,0.1-0.1,0.2-0.2
	c0.2-0.1,0.2-0.2,0.2-1.2l-0.4-3.9l-2.6,4.4c-0.5,0.9-0.7,1.1-0.9,1.1c-0.3,0-0.5-0.5-0.9-1.2c-0.4-0.7-1.6-2.8-2.4-4.2l-0.3,3
	c0,0.5-0.1,0.8-0.1,1.1c0,0.5,0.1,0.9,1,0.9c0.3,0,0.4,0.1,0.4,0.2c0,0.1-0.1,0.2-0.3,0.2c-0.8,0-1.5,0-2.3,0c-0.8,0-1.3,0-1.9,0
	c0.3,0,0.4,0,0.4-0.2c0-0.1-0.1-0.2-0.4-0.2c0,0-0.1,0-0.1,0c-0.3,0-0.3,0.1-0.3,0.2c0,0.1,0.2,0.2,0.4,0.2c-2.2,0-4.5,0-5.3-0.1
	c-0.3,0-0.3-0.1-0.3-0.2c0-0.1,0.1-0.1,0.3-0.2c0.2,0,0.2-0.2,0.1-0.3L135,144c0-0.1,0-0.1-0.1-0.1h-3.5c-0.1,0-0.2,0-0.2,0.1
	c-0.2,0.4-0.3,0.8-0.3,1c0,0.3,0.1,0.5,0.9,0.5c0.3,0,0.4,0.1,0.4,0.2c0,0.2-0.2,0.2-0.4,0.2c-0.9,0-1,0-2.3,0c-0.3,0-1.1,0-1.9,0
	c-0.2,0-0.4,0-0.4-0.2c0-0.1,0.1-0.2,0.3-0.2c0.5,0,0.8-0.2,1.4-1.3l4.2-8.3c0.6-1.2,0.9-1.7,1.2-1.7c0.3,0,0.4,0.3,1.1,1.7
	c0.2,0.3,2.9,5.7,3.9,7.8c0.6,1.4,0.8,1.8,1.7,1.8c0.7-0.1,0.8-0.4,1-1.1l1.5-8.8c0.2-1,0.3-1.3,0.5-1.3c0.2,0,0.5,0.4,0.9,1
	l3.9,5.6l3.8-5.6c0.5-0.7,0.7-0.9,0.9-0.9c0.2,0,0.3,0.3,0.4,0.9l1.5,8.8c0.2,1.3,0.4,1.5,1.3,1.6c0.3,0,0.3,0.1,0.3,0.2
	C157,146,156.8,146,156.6,146z M133.1,139.7C133.1,139.7,133.1,139.7,133.1,139.7l-1.2,2.4c0,0,0,0.1,0.1,0.1h2.3
	c0.1,0,0.1-0.1,0-0.1L133.1,139.7z M60.1,135.9c-0.2,0-0.4,0-0.5,0c-0.1,0-0.2,0.2-0.2,0.3c0,0.5,0,1.4,0,2.4v1.7c0,1.6,0,2.6,0,2.9
	c0,0.6,0,1,0.2,1.3c0.2,0.3,0.7,0.4,1.2,0.4c0.5,0,1.2-0.2,1.7-1c0.5-0.9,0.7-2,0.7-3.2c0-1-0.3-2.4-0.8-3.3
	C61.9,136.2,60.9,135.9,60.1,135.9z M22,135.7c-0.9,0-2.1,0.4-2.1,3.8c0,2.6,0.6,5.4,2.6,5.4c1,0,2.1-0.5,2.1-4.1
	C24.6,138.7,24.1,135.7,22,135.7z M22,135.7c-0.9,0-2.1,0.4-2.1,3.8c0,2.6,0.6,5.4,2.6,5.4c1,0,2.1-0.5,2.1-4.1
	C24.6,138.7,24.1,135.7,22,135.7z M62.6,137.3c-0.7-1.1-1.7-1.4-2.4-1.4c-0.2,0-0.4,0-0.5,0c-0.1,0-0.2,0.2-0.2,0.3
	c0,0.5,0,1.4,0,2.4v1.7c0,1.6,0,2.6,0,2.9c0,0.6,0,1,0.2,1.3c0.2,0.3,0.7,0.4,1.2,0.4c0.5,0,1.2-0.2,1.7-1c0.5-0.9,0.7-2,0.7-3.2
	C63.4,139.6,63.1,138.2,62.6,137.3z M62.6,137.3c-0.7-1.1-1.7-1.4-2.4-1.4c-0.2,0-0.4,0-0.5,0c-0.1,0-0.2,0.2-0.2,0.3
	c0,0.5,0,1.4,0,2.4v1.7c0,1.6,0,2.6,0,2.9c0,0.6,0,1,0.2,1.3c0.2,0.3,0.7,0.4,1.2,0.4c0.5,0,1.2-0.2,1.7-1c0.5-0.9,0.7-2,0.7-3.2
	C63.4,139.6,63.1,138.2,62.6,137.3z M22,135.7c-0.9,0-2.1,0.4-2.1,3.8c0,2.6,0.6,5.4,2.6,5.4c1,0,2.1-0.5,2.1-4.1
	C24.6,138.7,24.1,135.7,22,135.7z M22,135.7c-0.9,0-2.1,0.4-2.1,3.8c0,2.6,0.6,5.4,2.6,5.4c1,0,2.1-0.5,2.1-4.1
	C24.6,138.7,24.1,135.7,22,135.7z M62.6,137.3c-0.7-1.1-1.7-1.4-2.4-1.4c-0.2,0-0.4,0-0.5,0c-0.1,0-0.2,0.2-0.2,0.3
	c0,0.5,0,1.4,0,2.4v1.7c0,1.6,0,2.6,0,2.9c0,0.6,0,1,0.2,1.3c0.2,0.3,0.7,0.4,1.2,0.4c0.5,0,1.2-0.2,1.7-1c0.5-0.9,0.7-2,0.7-3.2
	C63.4,139.6,63.1,138.2,62.6,137.3z M62.6,137.3c-0.7-1.1-1.7-1.4-2.4-1.4c-0.2,0-0.4,0-0.5,0c-0.1,0-0.2,0.2-0.2,0.3
	c0,0.5,0,1.4,0,2.4v1.7c0,1.6,0,2.6,0,2.9c0,0.6,0,1,0.2,1.3c0.2,0.3,0.7,0.4,1.2,0.4c0.5,0,1.2-0.2,1.7-1c0.5-0.9,0.7-2,0.7-3.2
	C63.4,139.6,63.1,138.2,62.6,137.3z M22,135.7c-0.9,0-2.1,0.4-2.1,3.8c0,2.6,0.6,5.4,2.6,5.4c1,0,2.1-0.5,2.1-4.1
	C24.6,138.7,24.1,135.7,22,135.7z M22,135.7c-0.9,0-2.1,0.4-2.1,3.8c0,2.6,0.6,5.4,2.6,5.4c1,0,2.1-0.5,2.1-4.1
	C24.6,138.7,24.1,135.7,22,135.7z M62.6,137.3c-0.7-1.1-1.7-1.4-2.4-1.4c-0.2,0-0.4,0-0.5,0c-0.1,0-0.2,0.2-0.2,0.3
	c0,0.5,0,1.4,0,2.4v1.7c0,1.6,0,2.6,0,2.9c0,0.6,0,1,0.2,1.3c0.2,0.3,0.7,0.4,1.2,0.4c0.5,0,1.2-0.2,1.7-1c0.5-0.9,0.7-2,0.7-3.2
	C63.4,139.6,63.1,138.2,62.6,137.3z M62.6,137.3c-0.7-1.1-1.7-1.4-2.4-1.4c-0.2,0-0.4,0-0.5,0c-0.1,0-0.2,0.2-0.2,0.3
	c0,0.5,0,1.4,0,2.4v1.7c0,1.6,0,2.6,0,2.9c0,0.6,0,1,0.2,1.3c0.2,0.3,0.7,0.4,1.2,0.4c0.5,0,1.2-0.2,1.7-1c0.5-0.9,0.7-2,0.7-3.2
	C63.4,139.6,63.1,138.2,62.6,137.3z M22,135.7c-0.9,0-2.1,0.4-2.1,3.8c0,2.6,0.6,5.4,2.6,5.4c1,0,2.1-0.5,2.1-4.1
	C24.6,138.7,24.1,135.7,22,135.7z M22,135.7c-0.9,0-2.1,0.4-2.1,3.8c0,2.6,0.6,5.4,2.6,5.4c1,0,2.1-0.5,2.1-4.1
	C24.6,138.7,24.1,135.7,22,135.7z M22,135.7c-0.9,0-2.1,0.4-2.1,3.8c0,2.6,0.6,5.4,2.6,5.4c1,0,2.1-0.5,2.1-4.1
	C24.6,138.7,24.1,135.7,22,135.7z M22,135.7c-0.9,0-2.1,0.4-2.1,3.8c0,2.6,0.6,5.4,2.6,5.4c1,0,2.1-0.5,2.1-4.1
	C24.6,138.7,24.1,135.7,22,135.7z M22,135.7c-0.9,0-2.1,0.4-2.1,3.8c0,2.6,0.6,5.4,2.6,5.4c1,0,2.1-0.5,2.1-4.1
	C24.6,138.7,24.1,135.7,22,135.7z"/>
<polygon class="st1" points="84.8,0 0,84.8 0,0 42.8,0 "/>
<polygon class="st2" points="160,0 160,117.7 46.9,42.4 89.3,0 "/>
<g>
	<path class="st3" d="M140.9,145.6c0,0-0.1,0-0.1,0c-0.3,0-0.3,0.1-0.3,0.2c0,0.1,0.2,0.2,0.4,0.2h0.1c0.3,0,0.4,0,0.4-0.2
		C141.4,145.7,141.3,145.6,140.9,145.6z"/>
	<path class="st3" d="M140.9,145.6c0,0-0.1,0-0.1,0c-0.3,0-0.3,0.1-0.3,0.2c0,0.1,0.2,0.2,0.4,0.2h0.1c0.3,0,0.4,0,0.4-0.2
		C141.4,145.7,141.3,145.6,140.9,145.6z"/>
</g>
<g>
	<path class="st1" d="M79.7,91.2c-4,0.2-12.2,1.4-21.1,7.9l12.8-22.2L79.7,91.2z"/>
	<path class="st3" d="M88.6,106.9c-13.9-1-29.3,5.9-37.6,10.6c0,0-0.1,0-0.1,0.1c-1.6,0.9-3,1.8-4.1,2.4l5.8-10l0.6-1c0,0,0,0,0,0
		l1.4-2.4l0,0c0.5-0.8,1-1.6,1.6-2.3c0.8-1,1.8-1.9,2.8-2.8c0.3-0.3,0.6-0.5,1-0.8c2.2-1.6,4.3-2.8,6.4-3.7c0,0,0,0,0,0
		c6.1-2.9,11.3-3.4,14.5-3.5l0.8,1.3l0.1,0.1l3.5,6L88.6,106.9z"/>
	<path class="st1" d="M98.7,124H44.2l0.1-0.1c2.3-1.4,25.1-15.7,45.9-14.6l0,0L98.7,124z"/>
</g>
</svg>
